Coordinates
version=1
nRows=5
nColumns=60
inDegrees=yes

Units are S.I. units (second, meters, Newtons, ...)
If the header above contains a line with 'inDegrees', this indicates whether rotational values are in degrees (yes) or radians (no).

endheader
time	pelvis_tilt	pelvis_list	pelvis_rotation	pelvis_tx	pelvis_ty	pelvis_tz	hip_flexion_r	hip_adduction_r	hip_rotation_r	knee_angle_r_beta	knee_angle_r	ankle_angle_r	subtalar_angle_r	mtp_angle_r	hip_flexion_l	hip_adduction_l	hip_rotation_l	knee_angle_l_beta	knee_angle_l	ankle_angle_l	subtalar_angle_l	mtp_angle_l	L5_S1_Flex_Ext	L5_S1_Lat_Bending	L5_S1_axial_rotation	L4_L5_Flex_Ext	L4_L5_Lat_Bending	L4_L5_axial_rotation	L3_L4_Flex_Ext	L3_L4_Lat_Bending	L3_L4_axial_rotation	L2_L3_Flex_Ext	L2_L3_Lat_Bending	L2_L3_axial_rotation	L1_L2_Flex_Ext	L1_L2_Lat_Bending	L1_L2_axial_rotation	L1_T12_Flex_Ext	L1_T12_Lat_Bending	L1_T12_axial_rotation	Abs_r3	Abs_r2	Abs_r1	Abs_t1	Abs_t2	arm_flex_r	arm_add_r	arm_rot_r	elbow_flex_r	pro_sup_r	wrist_flex_r	wrist_dev_r	arm_flex_l	arm_add_l	arm_rot_l	elbow_flex_l	pro_sup_l	wrist_flex_l	wrist_dev_l
    122.41000000	     -0.50379651	    -12.85345927	     95.44587456	      0.40167371	      0.85674485	      0.40240338	     46.49231009	     -8.59064431	      0.03209464	      0.72913517	    -41.77636783	      9.92578851	      0.00000000	      0.00000000	     46.30302675	     -2.87847408	      0.13840853	      0.64918411	    -37.19550943	      7.87550012	      0.00000000	      0.00000000	    -10.98524931	      0.24968263	     -0.29952041	    -20.40070650	      0.33207790	     -0.31824044	    -18.04766609	      0.60707836	     -0.31824044	    -12.55504144	      0.60707836	     -0.26208036	    -10.20090251	      0.50915283	     -0.24336033	     -6.27697146	      0.38675840	     -0.22464031	    -78.46653731	      2.82445989	     -1.66584267	      0.00000000	      0.00000000	     91.13985608	    -13.73416241	     19.79893732	     21.48993929	     76.75873600	     27.06613730	      0.54850705	     98.00643491	    -11.53241014	     56.63358321	     16.31328053	     46.04248093	     26.40102277	     -2.58974508
    122.42000000	     -0.50739908	    -12.79966922	     95.42673793	      0.40174047	      0.85669803	      0.40292238	     46.46732999	     -8.60452052	     -0.02029900	      0.72873676	    -41.75354093	      9.91498598	      0.00000000	      0.00000000	     46.28933311	     -2.88799867	      0.15772177	      0.64956191	    -37.21715625	      7.87807173	      0.00000000	      0.00000000	    -10.97268640	      0.24366353	     -0.30182477	    -20.37737590	      0.32407250	     -0.32068882	    -18.02702648	      0.59244351	     -0.32068882	    -12.54068328	      0.59244351	     -0.26409667	    -10.18923659	      0.49687867	     -0.24523263	     -6.26979301	      0.37743481	     -0.22636858	    -78.37680165	      2.75637060	     -1.67865883	      0.00000000	      0.00000000	     91.26197369	    -13.61417981	     19.89595378	     21.13552946	     76.98207691	     27.04830008	      0.56976999	     98.05310575	    -11.51943975	     56.90054840	     16.24302699	     46.14153452	     26.41307178	     -2.56105416
    122.43000000	     -0.50414756	    -12.73466389	     95.40606868	      0.40179888	      0.85669262	      0.40341784	     46.43246564	     -8.59545963	     -0.05498384	      0.72855690	    -41.74323554	      9.90257343	      0.00000000	      0.00000000	     46.26403124	     -2.89488044	      0.16509191	      0.64979401	    -37.23045420	      7.87591171	      0.00000000	      0.00000000	    -10.95841567	      0.23934611	     -0.30214061	    -20.35087374	      0.31833032	     -0.32102440	    -18.00358111	      0.58194612	     -0.32102440	    -12.52437327	      0.58194612	     -0.26437304	    -10.17598479	      0.48807458	     -0.24548925	     -6.26163871	      0.37074712	     -0.22660546	    -78.27486730	      2.70753102	     -1.68041544	      0.00000000	      0.00000000	     91.22279578	    -13.54710882	     19.92348925	     21.02879843	     77.01404826	     27.03290964	      0.59202269	     98.05917727	    -11.53675007	     56.95361198	     16.20964671	     46.15089384	     26.41795210	     -2.53824488
    122.44000000	     -0.49171976	    -12.60247218	     95.34592122	      0.40194866	      0.85682308	      0.40389051	     46.31136730	     -8.54896965	     -0.07931477	      0.72751284	    -41.68341536	      9.80060745	      0.00000000	      0.00000000	     46.16996414	     -2.96906423	      0.12290140	      0.65037497	    -37.26374090	      7.86587417	      0.00000000	      0.00000000	    -10.94864502	      0.22695120	     -0.33494475	    -20.33272867	      0.30184510	     -0.35587880	    -17.98752891	      0.55180915	     -0.35587880	    -12.51320640	      0.55180915	     -0.29307666	    -10.16691177	      0.46279889	     -0.27214261	     -6.25605577	      0.35154741	     -0.25120856	    -78.20507653	      2.56731738	     -1.86286221	      0.00000000	      0.00000000	     91.36204500	    -13.11238299	     20.07887230	     20.49442671	     76.85531237	     26.72339714	      0.97867081	     98.08976061	    -11.64359030	     57.21386347	     15.76544087	     46.29123266	     26.46263970	     -2.12838664
    122.45000000	     -0.47079855	    -12.49256551	     95.30928770	      0.40209540	      0.85695358	      0.40431173	     46.20369057	     -8.49659086	     -0.07166865	      0.72673772	    -41.63900434	      9.76415533	      0.00000000	      0.00000000	     46.08074610	     -3.03719503	      0.09335601	      0.65012790	    -37.24958488	      7.83071703	      0.00000000	      0.00000000	    -10.93767994	      0.21765858	     -0.34286301	    -20.31236542	      0.28948591	     -0.36429194	    -17.96951438	      0.52921507	     -0.36429194	    -12.50067441	      0.52921507	     -0.30000513	    -10.15672960	      0.44384938	     -0.27857619	     -6.24979032	      0.33715314	     -0.25714725	    -78.12675407	      2.46219739	     -1.90690118	      0.00000000	      0.00000000	     91.26830532	    -13.02475341	     20.21721555	     20.42510595	     76.96921370	     26.58461325	      1.06077721	     98.03962155	    -11.77069929	     57.37464090	     15.78018991	     46.28280910	     26.49131005	     -1.99698852
